<svg width="341" height="127" viewBox="0 0 341 127" fill="none" xmlns="http://www.w3.org/2000/svg">
<path d="M334.141 124.28C333.459 122.52 334.332 120.542 336.091 119.86C337.837 119.178 339.814 120.051 340.496 121.81C341.178 123.557 340.305 125.535 338.559 126.217C338.15 126.38 337.728 126.462 337.318 126.462C335.955 126.462 334.659 125.63 334.141 124.28ZM324.649 103.722C323.749 102.057 324.363 99.9975 326.027 99.0972C327.677 98.2105 329.75 98.8243 330.636 100.475V100.489C331.536 102.139 330.922 104.199 329.259 105.099C328.74 105.386 328.195 105.509 327.649 105.509C326.436 105.509 325.263 104.868 324.649 103.722ZM1.91628 96.1233C0.30705 95.1411 -0.197538 93.0403 0.784367 91.4306C1.76627 89.8345 3.86645 89.3298 5.47569 90.312C7.08492 91.2942 7.58951 93.395 6.59397 95.0047C5.953 96.0551 4.83472 96.628 3.68916 96.628C3.07547 96.628 2.46178 96.4643 1.91628 96.1233ZM312.675 84.487C311.584 82.9591 311.953 80.831 313.48 79.7397C315.021 78.6484 317.148 79.0031 318.239 80.5446C319.33 82.0724 318.976 84.2005 317.435 85.2918C316.835 85.7147 316.139 85.9193 315.457 85.9193C314.394 85.9193 313.344 85.4283 312.675 84.487ZM14.8038 76.9977C13.3309 75.8245 13.0854 73.6828 14.2583 72.2095C15.4311 70.7362 17.5722 70.4907 19.0451 71.6639C20.5179 72.837 20.7634 74.9788 19.5906 76.4521C19.5906 76.4521 19.5906 76.4521 19.5906 76.4657C18.9223 77.3115 17.9268 77.748 16.9176 77.748C16.1812 77.748 15.4311 77.5025 14.8038 76.9977ZM298.451 66.8756C297.183 65.4842 297.279 63.3288 298.67 62.0602C300.047 60.7915 302.202 60.887 303.484 62.2784C304.752 63.6562 304.656 65.8252 303.265 67.0939C302.611 67.6941 301.793 67.9806 300.961 67.9806C300.047 67.9806 299.12 67.6123 298.451 66.8756ZM29.9415 59.6047C28.6186 58.2541 28.6459 56.0988 29.996 54.7755C31.3325 53.4523 33.5009 53.4796 34.8101 54.8301C36.1329 56.167 36.1056 58.336 34.7555 59.6456C34.1009 60.3004 33.2418 60.6278 32.3826 60.6278C31.4961 60.6278 30.6097 60.2867 29.9415 59.6047ZM282.168 51.1469C280.736 49.9191 280.573 47.7637 281.8 46.3314C283.014 44.9126 285.168 44.7353 286.6 45.963C288.032 47.1771 288.196 49.3325 286.982 50.7649C286.3 51.5561 285.346 51.9654 284.377 51.9654C283.6 51.9654 282.809 51.6925 282.168 51.1469ZM47.0975 44.1896C45.952 42.6891 46.2384 40.5473 47.7385 39.4014C49.225 38.2555 51.3661 38.542 52.5116 40.0426C53.6572 41.5432 53.3708 43.6849 51.8707 44.8308C51.257 45.2946 50.5342 45.5265 49.8114 45.5265C48.7886 45.5265 47.7658 45.0627 47.0975 44.1896ZM264.098 37.5325C262.516 36.4958 262.094 34.3813 263.13 32.7989C264.167 31.2301 266.28 30.8072 267.849 31.844C269.417 32.8807 269.853 34.9952 268.817 36.564C268.162 37.5598 267.071 38.0918 265.967 38.0918C265.326 38.0918 264.671 37.9145 264.098 37.5325ZM66.0128 30.9982C65.0582 29.3612 65.6037 27.274 67.2402 26.3191V26.3328C68.8631 25.3778 70.9496 25.9235 71.9042 27.5469C72.8452 29.1702 72.2997 31.2574 70.6769 32.2123C70.145 32.5261 69.5449 32.6761 68.9585 32.6761C67.7857 32.6761 66.6538 32.0759 66.0128 30.9982ZM244.488 26.2509C242.796 25.4051 242.115 23.3589 242.947 21.6673C243.778 19.9894 245.824 19.2937 247.515 20.1395C249.206 20.9716 249.888 23.0178 249.056 24.7094C248.456 25.9099 247.256 26.6056 246.001 26.6056C245.483 26.6056 244.965 26.4828 244.488 26.2509ZM86.4146 20.2213C85.6645 18.4888 86.4691 16.4835 88.2011 15.7469C89.9331 15.0102 91.9378 15.8014 92.6879 17.5339C93.4243 19.2664 92.6197 21.2717 90.8877 22.022C90.4513 22.1993 90.0013 22.2948 89.5512 22.2948C88.2284 22.2948 86.9737 21.5173 86.4146 20.2213ZM223.649 17.4657C221.863 16.8518 220.922 14.9011 221.549 13.1277C222.163 11.3543 224.113 10.413 225.886 11.0269C227.672 11.6544 228.6 13.6051 227.986 15.3785C227.495 16.7836 226.172 17.6567 224.768 17.6567C224.399 17.6567 224.018 17.6021 223.649 17.4657ZM107.989 12.0636C107.471 10.2629 108.507 8.36674 110.321 7.84836C112.135 7.32998 114.017 8.36674 114.549 10.1811C115.067 11.9954 114.017 13.878 112.217 14.3963C111.89 14.4918 111.576 14.5328 111.262 14.5328C109.789 14.5328 108.426 13.5642 107.989 12.0636ZM201.857 11.3406C200.015 10.945 198.843 9.14431 199.238 7.28905C199.634 5.44743 201.447 4.2879 203.288 4.6835C205.13 5.07911 206.302 6.87981 205.907 8.73507C205.566 10.3311 204.148 11.4225 202.579 11.4225C202.334 11.4225 202.102 11.3952 201.857 11.3406ZM130.409 6.66154C130.123 4.79264 131.391 3.04651 133.246 2.76004C135.114 2.45992 136.86 3.72859 137.146 5.5975C137.446 7.45276 136.178 9.19888 134.31 9.499C134.132 9.52628 133.955 9.53992 133.778 9.53992C132.128 9.53992 130.682 8.33946 130.409 6.66154ZM179.477 7.97113C177.609 7.80744 176.218 6.14316 176.382 4.27426C176.545 2.39171 178.209 1.00027 180.077 1.17761C181.959 1.34131 183.337 2.99194 183.173 4.87449C183.023 6.6479 181.523 7.98478 179.777 7.98478C179.682 7.98478 179.573 7.97113 179.477 7.97113ZM153.32 4.05599C153.266 2.17345 154.739 0.591022 156.621 0.536456C158.503 0.468248 160.085 1.94154 160.139 3.82409C160.207 5.70663 158.735 7.28906 156.853 7.35727C156.812 7.35727 156.771 7.35727 156.73 7.35727C154.902 7.35727 153.389 5.89761 153.32 4.05599Z" fill="#4D4D4D"/>
</svg>
