<svg width="355" height="126" viewBox="0 0 355 126" fill="none" xmlns="http://www.w3.org/2000/svg">
<path d="M2.43952 125.085C0.680272 124.389 -0.178857 122.411 0.516658 120.652C1.21217 118.906 3.18962 118.046 4.94886 118.742C6.69447 119.438 7.55359 121.416 6.85807 123.162C6.32621 124.499 5.04435 125.317 3.69423 125.317C3.27147 125.317 2.84864 125.249 2.43952 125.085ZM348.002 123.053H347.988C347.292 121.293 348.152 119.315 349.897 118.619C351.656 117.923 353.634 118.783 354.329 120.529C355.025 122.275 354.166 124.267 352.42 124.949C352.011 125.126 351.575 125.194 351.166 125.194C349.802 125.194 348.52 124.376 348.002 123.053ZM12.054 103.668C10.4038 102.754 9.80379 100.68 10.7039 99.0297C11.6176 97.3791 13.6905 96.7788 15.3407 97.6928C16.9908 98.5932 17.5908 100.667 16.6771 102.317C16.0634 103.45 14.8906 104.091 13.6905 104.091C13.1314 104.091 12.5722 103.954 12.054 103.668ZM338.169 102.235C337.255 100.585 337.855 98.5113 339.505 97.5973C341.156 96.6833 343.228 97.2836 344.142 98.9342C345.042 100.585 344.442 102.658 342.806 103.572C342.274 103.859 341.715 103.995 341.156 103.995C339.955 103.995 338.796 103.354 338.169 102.235ZM24.2733 83.6283C22.7595 82.5233 22.4186 80.3816 23.5369 78.8674C23.5369 78.8674 23.5368 78.8674 23.5232 78.8674C24.6415 77.3395 26.7689 76.9985 28.2964 78.1034C29.8101 79.2221 30.151 81.3502 29.0464 82.878C28.3782 83.792 27.3417 84.2831 26.2916 84.2831C25.5824 84.2831 24.8869 84.0648 24.2733 83.6283ZM325.8 82.8098C324.695 81.2819 325.036 79.1538 326.55 78.0352C328.077 76.9303 330.205 77.2713 331.323 78.7855C332.428 80.3134 332.087 82.4415 330.573 83.5601C329.959 83.9966 329.264 84.2013 328.568 84.2013C327.518 84.2013 326.468 83.7238 325.8 82.8098ZM38.92 65.2803C37.5426 63.9844 37.4744 61.829 38.77 60.4512C40.0519 59.087 42.2203 59.0188 43.5841 60.3011C44.9615 61.5971 45.0296 63.7525 43.7341 65.1303C43.0658 65.8396 42.1658 66.208 41.252 66.208C40.4201 66.208 39.5746 65.8942 38.92 65.2803ZM311.112 65.0757C309.816 63.6979 309.885 61.5425 311.262 60.2466C312.626 58.9643 314.781 59.0188 316.076 60.3966C317.372 61.7744 317.303 63.9298 315.926 65.2258C315.271 65.8396 314.426 66.1397 313.594 66.1397C312.68 66.1397 311.78 65.7851 311.112 65.0757ZM55.7215 48.8967C54.5214 47.4507 54.7259 45.2954 56.1715 44.0949C56.1715 44.0949 56.1715 44.0949 56.1715 44.1085C57.6171 42.8944 59.7719 43.099 60.972 44.5451C62.1721 46.0047 61.9675 48.1465 60.5219 49.3469V49.3606C59.8809 49.8789 59.1172 50.1381 58.3535 50.1381C57.3716 50.1381 56.4033 49.7152 55.7215 48.8967ZM294.311 49.306C292.865 48.0919 292.66 45.9501 293.86 44.5041C295.061 43.0445 297.215 42.8399 298.661 44.054C298.661 44.054 298.661 44.054 298.661 44.0403C300.107 45.2408 300.311 47.3962 299.111 48.8422C298.443 49.6607 297.461 50.0836 296.479 50.0836C295.715 50.0836 294.952 49.8244 294.311 49.306ZM74.4322 34.7504C73.4231 33.168 73.8867 31.0535 75.4823 30.044C77.0642 29.0345 79.1781 29.4984 80.1872 31.0944C81.1964 32.6769 80.7327 34.7913 79.1371 35.8008C78.578 36.1555 77.9371 36.3328 77.3097 36.3328C76.1915 36.3328 75.0868 35.7735 74.4322 34.7504ZM275.682 35.7462C274.086 34.7367 273.622 32.6359 274.632 31.0399C275.641 29.4574 277.755 28.98 279.337 29.9895C280.932 30.9989 281.396 33.1134 280.387 34.6958C279.746 35.7189 278.641 36.2782 277.509 36.2782C276.882 36.2782 276.254 36.1145 275.682 35.7462ZM94.7658 23.0595C93.9612 21.3543 94.684 19.3217 96.3887 18.5169C98.0934 17.712 100.125 18.4487 100.93 20.1402C101.735 21.8454 100.998 23.878 99.2935 24.6829C98.8298 24.9011 98.3388 25.0103 97.8479 25.0103C96.566 25.0103 95.3386 24.2873 94.7658 23.0595ZM255.498 24.6419C253.793 23.8371 253.071 21.8045 253.862 20.0993C254.666 18.3941 256.698 17.6711 258.403 18.4623C260.108 19.2672 260.844 21.2998 260.039 23.005C259.453 24.2327 258.226 24.9694 256.944 24.9694C256.466 24.9694 255.962 24.8602 255.498 24.6419ZM116.409 14.0015C115.822 12.2144 116.804 10.291 118.604 9.70438C120.391 9.13143 122.314 10.1 122.9 11.9007C123.473 13.6877 122.491 15.6112 120.704 16.1978C120.364 16.3069 120.009 16.3615 119.654 16.3615C118.209 16.3615 116.872 15.4475 116.409 14.0015ZM234.073 16.1569C232.287 15.5703 231.305 13.6468 231.878 11.8598C232.464 10.0727 234.387 9.0905 236.174 9.66345C237.974 10.25 238.956 12.1735 238.369 13.9606C237.906 15.4066 236.569 16.3206 235.124 16.3206C234.783 16.3206 234.428 16.266 234.073 16.1569ZM139.02 7.76727C138.679 5.91201 139.892 4.12496 141.734 3.77027C143.588 3.42923 145.375 4.64333 145.729 6.48495C146.07 8.34021 144.857 10.1273 143.015 10.4819C142.797 10.5229 142.579 10.5365 142.375 10.5365C140.765 10.5365 139.333 9.40426 139.02 7.76727ZM211.749 10.4547C209.894 10.1 208.68 8.31293 209.035 6.47131C209.376 4.61605 211.162 3.40195 213.017 3.74299C214.872 4.09767 216.086 5.88472 215.731 7.72634C215.417 9.36333 213.999 10.5092 212.39 10.5092C212.172 10.5092 211.967 10.4956 211.749 10.4547ZM162.244 4.41143C162.135 2.54253 163.554 0.919176 165.436 0.796401C167.318 0.687269 168.941 2.106 169.05 3.98854C169.172 5.87108 167.74 7.49443 165.858 7.60357C165.79 7.61721 165.722 7.61721 165.64 7.61721C163.854 7.61721 162.354 6.22576 162.244 4.41143ZM188.892 7.60357C187.024 7.48079 185.592 5.87108 185.701 3.98854C185.824 2.106 187.433 0.673627 189.315 0.796401C191.197 0.905534 192.629 2.52888 192.506 4.41143C192.397 6.21212 190.897 7.60357 189.11 7.60357C189.042 7.60357 188.974 7.60357 188.892 7.60357Z" fill="#4D4D4D"/>
</svg>
