<svg width="31" height="31" viewBox="0 0 31 31" fill="none" xmlns="http://www.w3.org/2000/svg">
<path d="M18.6992 30.0754C18.1537 30.0754 17.6218 29.8571 17.2264 29.4479L1.3522 12.9824C0.874885 12.4777 0.670315 11.7683 0.833965 11.0862C0.997616 10.4042 1.4886 9.8585 2.1432 9.62659L28.1228 0.445778C28.8728 0.172946 29.7184 0.377574 30.2775 0.950522C30.8367 1.52347 31.0003 2.36926 30.7139 3.11954L20.6084 28.7658C20.3493 29.4206 19.7902 29.8844 19.1083 30.0208C18.9583 30.0617 18.822 30.0754 18.6992 30.0754ZM6.49359 12.4231L17.9491 24.305L25.2452 5.7933L6.49359 12.4231Z" fill="#4D4D4D"/>
</svg>
