<svg width="356" height="125" viewBox="0 0 356 125" fill="none" xmlns="http://www.w3.org/2000/svg">
<path d="M186.37 121.469C186.261 119.586 187.679 117.977 189.561 117.854C191.443 117.745 193.066 119.177 193.175 121.046C193.298 122.929 191.866 124.552 189.984 124.661C189.916 124.661 189.848 124.675 189.78 124.675C187.979 124.675 186.479 123.283 186.37 121.469ZM166.105 124.661C164.223 124.538 162.791 122.915 162.914 121.032C163.036 119.164 164.646 117.731 166.528 117.84C168.41 117.963 169.842 119.586 169.719 121.469C169.61 123.27 168.11 124.661 166.323 124.661C166.255 124.661 166.173 124.661 166.105 124.661ZM209.704 118.986C209.35 117.145 210.563 115.358 212.418 115.003C214.273 114.662 216.046 115.876 216.4 117.718C216.755 119.573 215.541 121.36 213.686 121.701C213.468 121.755 213.264 121.769 213.045 121.769C211.436 121.769 210.004 120.623 209.704 118.986ZM142.403 121.687C140.562 121.333 139.348 119.546 139.689 117.69C140.043 115.849 141.83 114.635 143.685 114.976C145.526 115.33 146.739 117.117 146.399 118.959C146.085 120.596 144.653 121.742 143.044 121.742C142.839 121.742 142.621 121.715 142.403 121.687ZM232.547 113.598C231.974 111.797 232.956 109.874 234.743 109.301C236.543 108.714 238.452 109.696 239.039 111.497C239.625 113.284 238.643 115.208 236.843 115.794C236.502 115.903 236.147 115.958 235.793 115.958C234.361 115.958 233.024 115.044 232.547 113.598ZM119.26 115.753C117.473 115.167 116.491 113.243 117.078 111.442C117.664 109.655 119.587 108.673 121.374 109.26C123.16 109.846 124.142 111.77 123.556 113.557C123.092 115.003 121.755 115.917 120.324 115.917C119.969 115.917 119.614 115.862 119.26 115.753ZM254.531 105.358C253.74 103.653 254.463 101.62 256.167 100.816C257.872 100.011 259.904 100.747 260.709 102.453C261.5 104.158 260.777 106.19 259.072 106.982C258.608 107.214 258.104 107.309 257.627 107.309C256.345 107.309 255.117 106.586 254.531 105.358ZM97.0578 106.941C95.3531 106.136 94.6304 104.103 95.435 102.398C96.2396 100.693 98.2716 99.9698 99.9627 100.775C101.667 101.58 102.404 103.598 101.599 105.304C101.013 106.545 99.7854 107.268 98.5171 107.268C98.0261 107.268 97.5352 107.159 97.0578 106.941ZM275.301 94.4177C274.292 92.8216 274.769 90.7208 276.351 89.7113C277.947 88.7018 280.047 89.1657 281.056 90.7617C282.065 92.3442 281.601 94.4449 280.006 95.4681C279.447 95.8227 278.806 96.0001 278.178 96.0001C277.06 96.0001 275.955 95.4408 275.301 94.4177ZM76.1514 95.4135C74.5558 94.404 74.0922 92.2896 75.1014 90.7072C76.1106 89.1111 78.2243 88.6473 79.8063 89.6568C81.4019 90.6662 81.8656 92.7807 80.8564 94.3631C80.2018 95.3862 79.0972 95.9455 77.9789 95.9455C77.3516 95.9455 76.7106 95.7682 76.1514 95.4135ZM294.53 80.9534C293.33 79.5074 293.534 77.352 294.98 76.1516C296.439 74.9511 298.58 75.1557 299.78 76.6154C300.98 78.0614 300.776 80.2031 299.33 81.4036C298.689 81.9356 297.926 82.1948 297.162 82.1948C296.18 82.1948 295.198 81.7719 294.53 80.9534ZM56.8407 81.349C55.3951 80.1486 55.1905 78.0068 56.3906 76.5471C57.5907 75.1011 59.7455 74.8965 61.1911 76.097C62.6503 77.2975 62.8412 79.4528 61.6411 80.8988C60.9729 81.7173 59.9909 82.1402 59.0227 82.1402C58.2453 82.1402 57.4816 81.8811 56.8407 81.349ZM311.931 65.211C310.554 63.915 310.486 61.7596 311.781 60.3818C313.063 59.0177 315.218 58.9495 316.595 60.2318C317.973 61.5277 318.041 63.6831 316.745 65.0609C316.077 65.7703 315.163 66.125 314.263 66.125C313.431 66.125 312.586 65.8248 311.931 65.211ZM39.4391 64.9927C38.1436 63.6285 38.2117 61.4732 39.5891 60.1772C40.9665 58.8813 43.1213 58.9495 44.4032 60.3273C45.6988 61.7051 45.6306 63.8604 44.2532 65.1564C43.5986 65.7703 42.7531 66.0704 41.9212 66.0704C41.0075 66.0704 40.1074 65.7157 39.4391 64.9927ZM327.219 47.4223C325.705 46.3037 325.364 44.1756 326.469 42.6477C327.587 41.1199 329.715 40.7925 331.242 41.8975C332.756 43.0161 333.097 45.1442 331.992 46.672C331.324 47.586 330.274 48.0634 329.224 48.0634C328.528 48.0634 327.833 47.8588 327.219 47.4223ZM24.206 46.5902H24.1923C23.0877 45.076 23.4286 42.9342 24.956 41.8292C26.4698 40.7243 28.6109 41.0517 29.7155 42.5795C30.8202 44.1074 30.4793 46.2355 28.9655 47.3404C28.3518 47.7906 27.6562 47.9953 26.9607 47.9953C25.9106 47.9953 24.8742 47.5042 24.206 46.5902ZM340.175 27.8602C338.525 26.9463 337.924 24.8727 338.838 23.2221C339.752 21.5714 341.825 20.9712 343.475 21.8852C345.112 22.7992 345.725 24.8727 344.811 26.5233C344.184 27.642 343.025 28.2831 341.825 28.2831C341.266 28.2831 340.693 28.1467 340.175 27.8602ZM11.373 26.4279C10.4729 24.7772 11.073 22.7037 12.7231 21.7897C14.3733 20.8894 16.4462 21.4896 17.3463 23.1402C18.26 24.7909 17.66 26.8644 16.0098 27.7647C15.4916 28.0512 14.9188 28.1876 14.3733 28.1876C13.1595 28.1876 12.0003 27.5601 11.373 26.4279ZM350.566 6.8385C348.821 6.14278 347.962 4.16475 348.657 2.40498C349.353 0.658851 351.344 -0.200562 353.09 0.49516C354.835 1.19088 355.694 3.18256 354.999 4.92869C354.467 6.26556 353.185 7.08404 351.835 7.08404C351.412 7.08404 350.989 7.0022 350.566 6.8385ZM1.18578 4.8059C0.490268 3.04613 1.34938 1.06809 3.09499 0.37237C4.85424 -0.323352 6.83169 0.536082 7.5272 2.28221C8.22272 4.04198 7.3636 6.02001 5.61799 6.71573C5.19523 6.87943 4.77249 6.96127 4.36336 6.96127C2.9996 6.96127 1.71765 6.14277 1.18578 4.8059Z" fill="#4D4D4D"/>
</svg>
