<svg width="31" height="31" viewBox="0 0 31 31" fill="none" xmlns="http://www.w3.org/2000/svg">
<path d="M28.1357 30.1194C27.9039 30.1194 27.672 30.0785 27.4538 29.9967L1.47426 20.8159C0.819654 20.5839 0.328671 20.0383 0.16502 19.3562C0.00136914 18.6741 0.20594 17.9648 0.683255 17.46L16.5574 0.994594C17.0347 0.489855 17.7439 0.271599 18.4258 0.408015C19.1076 0.544431 19.6804 1.02186 19.9259 1.66302L30.0314 27.3093C30.3314 28.0596 30.1541 28.9053 29.5949 29.4783C29.2131 29.9012 28.6812 30.1194 28.1357 30.1194ZM5.82465 18.033L24.5763 24.6628L17.2802 6.15112L5.82465 18.033Z" fill="#4D4D4D"/>
</svg>
